# xmcd
#
# Track frame offsets:
# 150
# 16850
# 30745
# 46459
# 59812
# 73626
# 85609
# 101185
# 112529
# 127486
# 140418
# 157074
# 171807
# 184438
#
# Disc length: 2707 seconds
#
#
# Revision: 2
# Processed by: cddbd v1.5.1PL2 Copyright (c) Steve Scherf et al.
# Submitted via: FreeRIP 2.943 
#
DISCID=c90a910e
DTITLE=Di Paulo and Paulinho - O Coração Chora
DYEAR=2005
DGENRE=Country
TTITLE0=O Que é Que Eu Sou Sem Você
TTITLE1=Águas De Minha Saudade
TTITLE2=O Coração Chora
TTITLE3=Passarinho Do Sertão
TTITLE4=Só Você É O Remédio
TTITLE5=Não Brinque Com A Paixão
TTITLE6=Olha O Que Fez Comigo
TTITLE7=Cheiro De Flor
TTITLE8=Não Põe A Mão No Meu Chapéu
TTITLE9=Bate Nesse Peito Meu
TTITLE10=Nada Mudou
TTITLE11=A Resposta Está No Ar
TTITLE12=Estou Amando Você
TTITLE13=Caminhão Na Estrada, Coração Na Cama
EXTD=Sertenejo
EXTT0=
EXTT1=
EXTT2=
EXTT3=
EXTT4=
EXTT5=
EXTT6=
EXTT7=
EXTT8=
EXTT9=
EXTT10=
EXTT11=
EXTT12=
EXTT13=
PLAYORDER=
